<?xml version="1.0" encoding="utf-8"?>
<!-- Generator: Adobe Illustrator 16.0.0, SVG Export Plug-In . SVG Version: 6.00 Build 0)  -->
<!DOCTYPE svg PUBLIC "-//W3C//DTD SVG 1.1//EN" "http://www.w3.org/Graphics/SVG/1.1/DTD/svg11.dtd">
<svg version="1.1" id="Layer1" xmlns="http://www.w3.org/2000/svg" xmlns:xlink="http://www.w3.org/1999/xlink" x="0px" y="0px"
	 width="122px" height="20px" viewBox="0 0 122 20" style="enable-background:new 0 0 122 20;" xml:space="preserve">
<g>
	<g>
		<g>
			<polyline style="fill:none;stroke:#EA1D5B;stroke-miterlimit:10;" points="119.075,3.278 119.075,19.052 2.926,19.052 
				2.926,3.278 			"/>
			<g>
				<circle style="fill:#E9215C;" cx="2.926" cy="3.278" r="1.434"/>
				<circle style="fill:none;stroke:#EA1D5B;stroke-width:0.1849;stroke-miterlimit:10;" cx="2.926" cy="3.279" r="2.331"/>
			</g>
			<g>
				<circle style="fill:#E9215C;" cx="119.075" cy="3.278" r="1.434"/>
				<circle style="fill:none;stroke:#EA1D5B;stroke-width:0.1849;stroke-miterlimit:10;" cx="119.075" cy="3.279" r="2.331"/>
			</g>
		</g>
		<g>
			<line style="fill:none;stroke:#EA1D5B;stroke-miterlimit:10;" x1="113.341" y1="11.164" x2="113.341" y2="16.661"/>
			<line style="fill:none;stroke:#EA1D5B;stroke-miterlimit:10;" x1="106.798" y1="11.164" x2="106.798" y2="16.661"/>
			<line style="fill:none;stroke:#EA1D5B;stroke-miterlimit:10;" x1="100.256" y1="11.164" x2="100.256" y2="16.661"/>
			<line style="fill:none;stroke:#EA1D5B;stroke-miterlimit:10;" x1="93.713" y1="11.164" x2="93.713" y2="16.661"/>
			<line style="fill:none;stroke:#EA1D5B;stroke-miterlimit:10;" x1="87.171" y1="11.164" x2="87.171" y2="16.661"/>
			<line style="fill:none;stroke:#EA1D5B;stroke-miterlimit:10;" x1="80.628" y1="11.164" x2="80.628" y2="16.661"/>
			<line style="fill:none;stroke:#EA1D5B;stroke-miterlimit:10;" x1="74.085" y1="11.164" x2="74.085" y2="16.661"/>
			<line style="fill:none;stroke:#EA1D5B;stroke-miterlimit:10;" x1="67.542" y1="11.164" x2="67.542" y2="16.661"/>
			<line style="fill:none;stroke:#EA1D5B;stroke-miterlimit:10;" x1="61" y1="11.164" x2="61" y2="16.661"/>
			<line style="fill:none;stroke:#EA1D5B;stroke-miterlimit:10;" x1="54.458" y1="11.164" x2="54.458" y2="16.661"/>
			<line style="fill:none;stroke:#EA1D5B;stroke-miterlimit:10;" x1="47.915" y1="11.164" x2="47.915" y2="16.661"/>
			<line style="fill:none;stroke:#EA1D5B;stroke-miterlimit:10;" x1="41.372" y1="11.164" x2="41.372" y2="16.661"/>
			<line style="fill:none;stroke:#EA1D5B;stroke-miterlimit:10;" x1="34.829" y1="11.164" x2="34.829" y2="16.661"/>
			<line style="fill:none;stroke:#EA1D5B;stroke-miterlimit:10;" x1="28.287" y1="11.164" x2="28.287" y2="16.661"/>
			<line style="fill:none;stroke:#EA1D5B;stroke-miterlimit:10;" x1="21.744" y1="11.164" x2="21.744" y2="16.661"/>
			<line style="fill:none;stroke:#EA1D5B;stroke-miterlimit:10;" x1="15.202" y1="11.164" x2="15.202" y2="16.661"/>
			<line style="fill:none;stroke:#EA1D5B;stroke-miterlimit:10;" x1="8.659" y1="16.661" x2="8.659" y2="11.164"/>
		</g>
	</g>
</g>
</svg>
