<?xml version="1.0" encoding="utf-8"?>
<!-- Generator: Adobe Illustrator 16.0.0, SVG Export Plug-In . SVG Version: 6.00 Build 0)  -->
<!DOCTYPE svg PUBLIC "-//W3C//DTD SVG 1.1//EN" "http://www.w3.org/Graphics/SVG/1.1/DTD/svg11.dtd">
<svg version="1.1" id="Layer_1" xmlns="http://www.w3.org/2000/svg" xmlns:xlink="http://www.w3.org/1999/xlink" x="0px" y="0px"
	 width="173px" height="43.75px" viewBox="0 0 173 43.75" style="enable-background:new 0 0 173 43.75;" xml:space="preserve">
<g>
	<g>
		<g>
			<g>
				<polyline style="fill:none;stroke:#EA1D5B;stroke-miterlimit:10;" points="4.136,25.341 4.136,41.112 168.865,41.112 
					168.865,25.341 				"/>
				<g>
					<path style="fill:#E9215C;" d="M168.865,23.905c0.788,0,1.432,0.643,1.432,1.436c0,0.791-0.644,1.434-1.432,1.434
						c-0.795,0-1.437-0.643-1.437-1.434C167.429,24.548,168.07,23.905,168.865,23.905z"/>
					<circle style="fill:none;stroke:#EA1D5B;stroke-width:0.1849;stroke-miterlimit:10;" cx="168.865" cy="25.339" r="2.33"/>
				</g>
				<g>
					<circle style="fill:#E9215C;" cx="4.136" cy="25.34" r="1.435"/>
					<circle style="fill:none;stroke:#EA1D5B;stroke-width:0.1849;stroke-miterlimit:10;" cx="4.136" cy="25.339" r="2.33"/>
				</g>
			</g>
			<g>
				<line style="fill:none;stroke:#EA1D5B;stroke-miterlimit:10;" x1="9.87" y1="33.227" x2="9.87" y2="38.724"/>
				<line style="fill:none;stroke:#EA1D5B;stroke-miterlimit:10;" x1="19.41" y1="33.227" x2="19.41" y2="38.724"/>
				<line style="fill:none;stroke:#EA1D5B;stroke-miterlimit:10;" x1="28.949" y1="33.227" x2="28.949" y2="38.724"/>
				<line style="fill:none;stroke:#EA1D5B;stroke-miterlimit:10;" x1="38.488" y1="33.227" x2="38.488" y2="38.724"/>
				<line style="fill:none;stroke:#EA1D5B;stroke-miterlimit:10;" x1="48.027" y1="33.227" x2="48.027" y2="38.724"/>
				<line style="fill:none;stroke:#EA1D5B;stroke-miterlimit:10;" x1="57.567" y1="33.227" x2="57.567" y2="38.724"/>
				<line style="fill:none;stroke:#EA1D5B;stroke-miterlimit:10;" x1="67.106" y1="33.227" x2="67.106" y2="38.724"/>
				<line style="fill:none;stroke:#EA1D5B;stroke-miterlimit:10;" x1="76.646" y1="33.227" x2="76.646" y2="38.724"/>
				<line style="fill:none;stroke:#EA1D5B;stroke-miterlimit:10;" x1="86.185" y1="33.227" x2="86.185" y2="38.724"/>
				<line style="fill:none;stroke:#EA1D5B;stroke-miterlimit:10;" x1="95.725" y1="33.227" x2="95.725" y2="38.724"/>
				<line style="fill:none;stroke:#EA1D5B;stroke-miterlimit:10;" x1="105.264" y1="33.227" x2="105.264" y2="38.724"/>
				<line style="fill:none;stroke:#EA1D5B;stroke-miterlimit:10;" x1="114.803" y1="33.227" x2="114.803" y2="38.724"/>
				<line style="fill:none;stroke:#EA1D5B;stroke-miterlimit:10;" x1="124.343" y1="33.227" x2="124.343" y2="38.724"/>
				<line style="fill:none;stroke:#EA1D5B;stroke-miterlimit:10;" x1="133.882" y1="33.227" x2="133.882" y2="38.724"/>
				<line style="fill:none;stroke:#EA1D5B;stroke-miterlimit:10;" x1="143.421" y1="33.227" x2="143.421" y2="38.724"/>
				<line style="fill:none;stroke:#EA1D5B;stroke-miterlimit:10;" x1="152.961" y1="33.227" x2="152.961" y2="38.724"/>
				<line style="fill:none;stroke:#EA1D5B;stroke-miterlimit:10;" x1="162.5" y1="38.724" x2="162.5" y2="33.227"/>
			</g>
		</g>
	</g>
	<g>
		<g>
			<g>
				<g>
					<circle style="fill:#EA1D5B;" cx="17.557" cy="3.701" r="1.063"/>
					<path style="fill:#EA1D5B;" d="M20.04,6.41c-0.004-0.788-0.646-1.427-1.437-1.427h-1.42h-0.097H16.51
						c-0.79,0-1.431,0.639-1.436,1.427c0,0.002,0,0.004,0,0.004v2.813c0,0.252,0.205,0.457,0.458,0.457
						c0.254,0,0.459-0.205,0.459-0.457V7.559V6.622h0.219v1.002v1.798v0.259v4.363c0,0.339,0.275,0.614,0.614,0.614
						c0.341,0,0.616-0.275,0.616-0.614V9.681h0.233v4.363c0,0.339,0.276,0.614,0.616,0.614s0.615-0.275,0.615-0.614V9.681V9.422
						V7.624V6.622h0.219v0.937v1.669c0,0.252,0.205,0.457,0.457,0.457c0.254,0,0.459-0.205,0.459-0.457V6.415
						C20.04,6.415,20.04,6.412,20.04,6.41z"/>
				</g>
			</g>
		</g>
		<g>
			<g>
				<g>
					<circle style="fill:#EA1D5B;" cx="30.53" cy="3.701" r="1.063"/>
					<path style="fill:#EA1D5B;" d="M33.015,6.41c-0.004-0.788-0.646-1.427-1.438-1.427h-1.42h-0.096h-0.578
						c-0.789,0-1.43,0.639-1.436,1.427c0,0.002,0,0.004,0,0.004v2.813c0,0.252,0.205,0.457,0.459,0.457
						c0.253,0,0.459-0.205,0.459-0.457V7.559V6.622h0.218v1.002v1.798v0.259v4.363c0,0.339,0.276,0.614,0.616,0.614
						c0.339,0,0.614-0.275,0.614-0.614V9.681h0.235v4.363c0,0.339,0.274,0.614,0.614,0.614s0.615-0.275,0.615-0.614V9.681V9.422
						V7.624V6.622h0.219v0.937v1.669c0,0.252,0.205,0.457,0.458,0.457c0.254,0,0.459-0.205,0.459-0.457V6.415
						C33.015,6.415,33.015,6.412,33.015,6.41z"/>
				</g>
			</g>
		</g>
		<g>
			<g>
				<circle style="fill:#EA1D5B;" cx="24.05" cy="3.811" r="1.051"/>
				<path style="fill:#EA1D5B;" d="M26.728,8.735l-0.834-2.59c-0.004-0.017-0.014-0.032-0.021-0.049
					c-0.33-0.84-1.069-1.038-1.331-1.038c-0.236,0-0.183,0-0.429,0c-0.056,0-0.101,0-0.139,0c-0.247,0-0.191,0-0.43,0
					c-0.259,0-0.998,0.198-1.329,1.038c-0.009,0.017-0.017,0.032-0.022,0.049l-0.832,2.59c-0.072,0.217,0.045,0.451,0.262,0.522
					s0.45-0.046,0.522-0.264L22.948,6.5h0.187l-1.37,4.279h1.117v3.391c0,0.27,0.221,0.488,0.49,0.488s0.489-0.219,0.489-0.488
					v-3.391h0.364v3.391c0,0.27,0.219,0.488,0.49,0.488c0.269,0,0.488-0.219,0.488-0.488v-3.391h1.119L24.951,6.5h0.188l0.804,2.494
					c0.07,0.218,0.304,0.335,0.521,0.264C26.682,9.187,26.8,8.952,26.728,8.735z"/>
			</g>
		</g>
	</g>
</g>
</svg>
