<?xml version="1.0" encoding="utf-8"?>
<!-- Generator: Adobe Illustrator 16.0.0, SVG Export Plug-In . SVG Version: 6.00 Build 0)  -->
<!DOCTYPE svg PUBLIC "-//W3C//DTD SVG 1.1//EN" "http://www.w3.org/Graphics/SVG/1.1/DTD/svg11.dtd">
<svg version="1.1" id="circulo" xmlns="http://www.w3.org/2000/svg" xmlns:xlink="http://www.w3.org/1999/xlink" x="0px" y="0px"
	 width="160px" height="160px" viewBox="0 0 160 160" style="enable-background:new 0 0 160 160;" xml:space="preserve">
<g>
	<g>
		<circle style="fill:#F0E910;" cx="149.391" cy="80" r="1.391"/>
		<circle style="fill:#F0E910;" cx="10.61" cy="80" r="1.391"/>
	</g>
	<g>
		<circle style="fill:#F0E910;" cx="143.688" cy="52.453" r="1.392"/>
		<circle style="fill:#F0E910;" cx="16.313" cy="107.547" r="1.391"/>
	</g>
	<circle style="fill:#F0E910;" cx="80.001" cy="10.61" r="1.391"/>
	<circle style="fill:#F0E910;" cx="80.001" cy="149.39" r="1.391"/>
	<g>
		<circle style="fill:#F0E910;" cx="52.962" cy="16.094" r="1.391"/>
		<circle style="fill:#F0E910;" cx="107.037" cy="143.907" r="1.391"/>
	</g>
	<g>
		<circle style="fill:#F0E910;" cx="129.066" cy="30.934" r="1.391"/>
		<circle style="fill:#F0E910;" cx="30.935" cy="129.065" r="1.391"/>
	</g>
	<path style="fill:#F0E910;" d="M29.952,29.951c0.542-0.543,1.421-0.543,1.964,0c0.544,0.544,0.546,1.423,0.002,1.966
		c-0.545,0.544-1.424,0.544-1.966,0C29.407,31.374,29.407,30.495,29.952,29.951z"/>
	<circle style="fill:#F0E910;" cx="129.066" cy="129.066" r="1.391"/>
	<g>
		<path style="fill:#F0E910;" d="M111.242,16.486c0.688,0.341,0.973,1.175,0.635,1.862c-0.34,0.69-1.172,0.976-1.863,0.635
			c-0.689-0.339-0.973-1.174-0.635-1.863C109.719,16.433,110.553,16.148,111.242,16.486z"/>
		<circle style="fill:#F0E910;" cx="49.372" cy="142.264" r="1.391"/>
	</g>
	<path style="fill:#F0E910;" d="M16.488,48.761c0.339-0.693,1.172-0.976,1.86-0.636s0.975,1.171,0.635,1.861
		c-0.339,0.688-1.173,0.975-1.861,0.634C16.432,50.282,16.147,49.448,16.488,48.761z"/>
	<path style="fill:#F0E910;" d="M141.018,110.014c0.338-0.691,1.17-0.975,1.859-0.637c0.689,0.342,0.975,1.173,0.637,1.865
		c-0.338,0.687-1.176,0.97-1.863,0.632C140.961,111.536,140.678,110.702,141.018,110.014z"/>
	<path style="fill:#F0E910;" d="M79.783,13.567c-35.922,0-65.043,29.12-65.043,65.041c0,35.922,29.121,65.043,65.043,65.043
		c35.922,0,65.042-29.121,65.042-65.043C144.824,42.687,115.705,13.567,79.783,13.567z M79.783,133.565
		c-30.352,0-54.953-24.604-54.953-54.957c0-30.35,24.602-54.954,54.953-54.954c30.352,0,54.956,24.604,54.956,54.954
		C134.738,108.961,110.135,133.565,79.783,133.565z"/>
</g>
</svg>
