<?xml version="1.0" encoding="utf-8"?>
<!-- Generator: Adobe Illustrator 16.0.0, SVG Export Plug-In . SVG Version: 6.00 Build 0)  -->
<!DOCTYPE svg PUBLIC "-//W3C//DTD SVG 1.1//EN" "http://www.w3.org/Graphics/SVG/1.1/DTD/svg11.dtd">
<svg version="1.1" id="Layer_1" xmlns="http://www.w3.org/2000/svg" xmlns:xlink="http://www.w3.org/1999/xlink" x="0px" y="0px"
	 width="87px" height="165px" viewBox="0 0 87 165" style="enable-background:new 0 0 87 165;" xml:space="preserve">
<g>
	<path style="fill:#EA1D5B;" d="M63.211,67.649H45.355v17.855v2.36v49.704c0,9.861,7.994,17.855,17.855,17.855
		s17.855-7.994,17.855-17.855V85.504C81.066,75.644,73.072,67.649,63.211,67.649z"/>
	<circle style="fill:#F5F6F6;" cx="63.234" cy="107.26" r="3.803"/>
	<path style="fill:#F5F6F6;" d="M72.922,125.07l-3.016-9.367c-0.021-0.064-0.051-0.119-0.078-0.178
		c-1.201-3.037-3.873-3.754-4.814-3.754c-0.855,0-0.662,0-1.551,0c-0.201,0-0.365,0-0.506,0c-0.889,0-0.693,0-1.549,0
		c-0.943,0-3.615,0.717-4.814,3.754c-0.029,0.059-0.057,0.113-0.078,0.178L53.5,125.07c-0.258,0.785,0.168,1.633,0.953,1.891
		s1.631-0.168,1.887-0.951l2.904-9.027h0.682l-4.955,15.479h4.043v12.266c0,0.979,0.793,1.77,1.768,1.77
		c0.977,0,1.77-0.791,1.77-1.77v-12.266h1.32v12.266c0,0.979,0.791,1.77,1.77,1.77c0.977,0,1.768-0.791,1.768-1.77v-12.266h4.043
		l-4.957-15.479h0.682l2.904,9.027c0.26,0.783,1.104,1.209,1.889,0.951C72.752,126.703,73.178,125.855,72.922,125.07z"/>
	<path style="fill:#EA1D5B;" d="M23.789,9.576c-9.861,0-17.855,7.995-17.855,17.856v54.079c0,9.862,7.994,17.854,17.855,17.854
		h17.854V81.511V79.15V27.432C41.643,17.571,33.65,9.576,23.789,9.576z"/>
	<circle style="fill:#F5F6F6;" cx="23.789" cy="22.365" r="3.828"/>
	<path style="fill:#F5F6F6;" d="M32.731,32.125c-0.016-2.843-2.325-5.145-5.173-5.145h-5.114h-0.352h-2.074
		c-2.847,0-5.155,2.302-5.172,5.145c0,0.004,0,0.009,0,0.015v10.126c0,0.912,0.738,1.652,1.65,1.652s1.652-0.74,1.652-1.652V36.26
		v-3.375h0.789v3.612v6.47v0.938v15.709c0,1.224,0.992,2.216,2.215,2.216c1.225,0,2.217-0.992,2.217-2.216V43.905h0.838v15.709
		c0,1.224,0.992,2.216,2.216,2.216c1.225,0,2.217-0.992,2.217-2.216V43.905v-0.938v-6.47v-3.612h0.79v3.375v6.006
		c0,0.912,0.737,1.652,1.65,1.652c0.911,0,1.65-0.74,1.65-1.652V32.14C32.731,32.134,32.731,32.129,32.731,32.125z"/>
</g>
</svg>
