<?xml version="1.0" encoding="utf-8"?>
<!-- Generator: Adobe Illustrator 16.0.0, SVG Export Plug-In . SVG Version: 6.00 Build 0)  -->
<!DOCTYPE svg PUBLIC "-//W3C//DTD SVG 1.1//EN" "http://www.w3.org/Graphics/SVG/1.1/DTD/svg11.dtd">
<svg version="1.1" xmlns="http://www.w3.org/2000/svg" xmlns:xlink="http://www.w3.org/1999/xlink" x="0px" y="0px" width="327.5px"
	 height="198px" viewBox="0 0 327.5 198" style="enable-background:new 0 0 327.5 198;" xml:space="preserve">
<g id="Layer_1">
	<g>
		<polygon style="fill:#EA1D5B;" points="264.533,179.686 251.042,193.177 256.699,193.177 270.189,179.686 		"/>
		<polygon style="fill:#EA1D5B;" points="245.207,179.686 231.714,193.177 237.371,193.177 250.863,179.686 		"/>
		<polygon style="fill:#EA1D5B;" points="254.87,179.686 241.378,193.177 247.035,193.177 260.525,179.686 		"/>
		<polygon style="fill:#EA1D5B;" points="274.197,179.686 260.706,193.177 266.361,193.177 279.854,179.686 		"/>
		<polygon style="fill:#EA1D5B;" points="283.859,179.686 270.369,193.177 276.025,193.177 289.516,179.686 		"/>
		<polygon style="fill:#EA1D5B;" points="293.523,179.686 280.032,193.177 285.688,193.177 299.18,179.686 		"/>
		<polygon style="fill:#EA1D5B;" points="303.186,179.686 289.695,193.177 295.352,193.177 308.842,179.686 		"/>
		<polygon style="fill:#EA1D5B;" points="312.849,179.686 299.357,193.177 305.014,193.177 318.505,179.686 		"/>
		<polyline style="fill:#EA1D5B;" points="326,179.686 322.512,179.686 309.021,193.177 314.677,193.177 326,179.762 		"/>
		<polygon style="fill:#EA1D5B;" points="235.542,179.686 222.051,193.177 227.708,193.177 241.199,179.686 		"/>
		<polygon style="fill:#EA1D5B;" points="187.225,179.686 173.734,193.177 179.391,193.177 192.88,179.686 		"/>
		<polygon style="fill:#EA1D5B;" points="71.261,179.686 57.771,193.177 63.427,193.177 76.917,179.686 		"/>
		<polygon style="fill:#EA1D5B;" points="109.916,179.686 96.425,193.177 102.082,193.177 115.572,179.686 		"/>
		<polygon style="fill:#EA1D5B;" points="61.598,179.686 48.107,193.177 53.763,193.177 67.254,179.686 		"/>
		<polygon style="fill:#EA1D5B;" points="90.589,179.686 77.097,193.177 82.753,193.177 96.246,179.686 		"/>
		<polygon style="fill:#EA1D5B;" points="100.252,179.686 86.761,193.177 92.417,193.177 105.909,179.686 		"/>
		<polygon style="fill:#EA1D5B;" points="51.935,179.686 38.443,193.177 44.099,193.177 57.591,179.686 		"/>
		<polygon style="fill:#EA1D5B;" points="80.925,179.686 67.434,193.177 73.09,193.177 86.582,179.686 		"/>
		<polygon style="fill:#EA1D5B;" points="5.962,179.686 5.962,182.997 9.273,179.686 		"/>
		<polygon style="fill:#EA1D5B;" points="42.271,179.686 28.78,193.177 34.436,193.177 47.927,179.686 		"/>
		<polygon style="fill:#EA1D5B;" points="13.281,179.686 5.962,187.003 5.962,192.66 18.937,179.686 		"/>
		<polygon style="fill:#EA1D5B;" points="22.944,179.686 9.453,193.177 15.109,193.177 28.6,179.686 		"/>
		<polygon style="fill:#EA1D5B;" points="32.607,179.686 19.117,193.177 24.773,193.177 38.263,179.686 		"/>
		<polygon style="fill:#EA1D5B;" points="177.561,179.686 164.07,193.177 169.727,193.177 183.217,179.686 		"/>
		<polygon style="fill:#EA1D5B;" points="196.889,179.686 183.396,193.177 189.053,193.177 202.544,179.686 		"/>
		<polygon style="fill:#EA1D5B;" points="216.215,179.686 202.725,193.177 208.38,193.177 221.872,179.686 		"/>
		<polygon style="fill:#EA1D5B;" points="206.552,179.686 193.061,193.177 198.716,193.177 212.208,179.686 		"/>
		<polygon style="fill:#EA1D5B;" points="225.878,179.686 212.389,193.177 218.044,193.177 231.535,179.686 		"/>
		<polygon style="fill:#EA1D5B;" points="129.244,179.686 115.751,193.177 121.408,193.177 134.9,179.686 		"/>
		<polygon style="fill:#EA1D5B;" points="119.58,179.686 106.088,193.177 111.745,193.177 125.236,179.686 		"/>
		<polygon style="fill:#EA1D5B;" points="138.907,179.686 125.416,193.177 131.072,193.177 144.563,179.686 		"/>
		<polygon style="fill:#EA1D5B;" points="167.898,179.686 154.406,193.177 160.062,193.177 173.555,179.686 		"/>
		<polygon style="fill:#EA1D5B;" points="158.234,179.686 144.743,193.177 150.399,193.177 163.89,179.686 		"/>
		<polygon style="fill:#EA1D5B;" points="148.57,179.686 135.08,193.177 140.736,193.177 154.226,179.686 		"/>
		<path style="fill:#EA1D5B;" d="M326.667,181.189"/>
		<polyline style="fill:#EA1D5B;" points="326,185.861 318.684,193.177 324.34,193.177 326,191.518 		"/>
	</g>
</g>
<g id="Layer_2">
	<g>
		<path style="fill:#EA1D5B;" d="M60.648,54.287c-1.17-0.326-1.235,0.065-1.365-0.585c-0.13-0.65-0.91-0.65-1.626-0.65
			c-0.715,0-0.975-0.065-1.561-0.585c-0.585-0.52-1.82-0.585-2.21-0.715c-0.391-0.13-0.195-1.235-0.976-2.275
			c-0.78-1.041-2.406-1.235-3.446-1.821c-1.041-0.585-0.716-2.861-2.211-2.666c-1.496,0.195-1.626,0.78-2.991,0.065
			c-1.365-0.715-2.276-1.17-2.991-0.65c-0.715,0.521-1.625,1.496-2.081,1.756c-0.455,0.26-1.235-0.195-1.69-0.13
			c-0.455,0.065-0.976-0.456-1.301-0.91c-0.324-0.456,0.586-2.731-0.26-2.731s-1.95-0.39-1.95-0.715
			c0-0.325,1.755-2.276,1.235-2.601c-0.521-0.325-1.561-0.13-2.472,1.105c-0.91,1.236-1.755,1.17-2.21,0.715
			c-0.456-0.455-1.496-3.121-0.65-4.617c0.845-1.496,2.211-2.211,3.251-2.146s0.91-0.26,1.95-0.325
			c1.041-0.065,2.342,0.26,2.602,0.65c0.26,0.39-0.26,1.04,0.391,1.82c0.649,0.78,1.04,0.456,1.104,0.78
			c0.065,0.325-0.52,0.65-0.78,0.65c-0.26,0-2.406,0.585-1.561,0.975c0.846,0.39,2.341,0.065,2.666,0.585
			c0.325,0.52-1.04,1.625,0.911,1.69c1.95,0.065,3.251,0.325,4.356,0.39c1.105,0.065,1.885,0.13,2.016,0.39
			c0.13,0.26,0.91-0.975-0.91-0.975c-1.821,0-3.252-1.041-4.227-1.235c-0.976-0.195-1.626-0.846-1.691-1.626
			c-0.064-0.78,0.065-1.365-0.324-2.016c-0.391-0.65-1.366-2.21-0.456-2.861c0.911-0.65,2.731-1.886,3.187-2.731
			s0.455-1.04,1.495-1.69c1.041-0.65,2.276-1.496,2.861-2.081s1.561-1.496,1.756-1.04c0.195,0.455,1.105,0.585,2.211,0.195
			c1.105-0.39,2.471-1.365,1.3-1.365c-1.17,0-1.885-0.325-1.561-0.78c0.326-0.455-0.779-0.65-1.105-0.585
			c-0.325,0.065-0.325-0.65,0.781-0.846c1.105-0.195,0.194,0.781,1.105,0.716c0.91-0.065,1.495-0.78,2.146-0.911
			c0.649-0.13,0.91,0.456,0.064,1.041c-0.845,0.585-1.104,0.39,0,0.65c1.105,0.26,1.431,0.845,2.081,0.26
			c0.65-0.585-0.13-0.78-0.195-1.561c-0.064-0.78,0.131-2.211-0.585-2.731s-0.716-1.17-0.716-1.69s0.131-1.625-0.585-1.105
			c-0.715,0.52-1.3,0.845-1.561,0.585c-0.26-0.26,0.13-0.781-0.455-1.17c-0.585-0.391-0.649-0.976-1.365-0.911
			c-0.716,0.065-1.431-0.52-1.82,0.325c-0.391,0.845-0.781,1.561-0.911,1.821c-0.13,0.26,0.455,1.17-0.064,1.625
			c-0.521,0.455-1.951,1.105-2.146,1.561c-0.194,0.455-0.975,1.626-1.17,0.845c-0.195-0.78,0.65-1.951-0.521-2.276
			c-1.17-0.325-2.081-0.064-2.275-0.78c-0.195-0.715-0.715-1.365,0.455-1.951c1.171-0.585,2.341-1.625,3.446-1.755
			s0.325,0.78,1.235,0.715c0.91-0.065-0.13-0.521,0.976-0.715s0.91-0.195,0.585-0.585c-0.325-0.39-0.13-0.455,0.716-0.845
			c0.845-0.39,0.194-0.65,1.04-0.975c0.845-0.326,1.04-0.65,1.496-0.65c0.454,0,0.39,0.195,0.13,0.78
			c-0.261,0.585-0.455,0.975,0.324,0.585c0.781-0.39,1.171-0.65,0.586-0.065c-0.586,0.585-0.976,0.585-1.821,0.715
			c-0.845,0.13-0.585,0.26-0.194,0.715c0.39,0.455,1.365,0.52,1.69,0.78c0.325,0.26,0.715,1.17,1.495,0.715
			c0.78-0.455,0.195-0.52,1.235-0.975c1.041-0.455,2.536-0.715,2.406-1.301c-0.13-0.585-1.171-0.91-1.301-1.625
			s1.431-1.105-0.585-1.43c-2.016-0.325-0.846-0.585-1.82-0.585c-0.976,0-2.797,0-3.447,0.325c-0.649,0.325-1.04-0.195-1.365,0.325
			c-0.324,0.52,0.065,1.235-0.26,1.235c-0.325,0-0.91,0.521-1.171,0c-0.26-0.52-0.845-1.04-0.064-1.235
			c0.781-0.195,0.91-0.065,1.04-0.65c0.131-0.585-1.105-0.52-0.39-0.65c0.715-0.13,1.04,0.065,2.016,0.065
			c0.976,0,3.187,0.39,3.512-0.195c0.324-0.585-0.521-0.585-1.496-0.65c-0.975-0.065-2.666-0.391-3.381-0.065
			c-0.716,0.325-1.626,0.845-1.951,1.365c-0.325,0.52-0.325-0.13-0.976,0c-0.65,0.13-1.756,0.845-1.17,1.235
			c0.585,0.39,0.585,0.845-0.065,0.845s-0.845,0.65-1.3,0.65c-0.456,0-1.691-0.065-1.105-0.39c0.585-0.325,1.235-0.325,1.17-1.105
			c-0.064-0.78,0.65-1.04,0.65-1.301c0-0.26-1.561,0.585-2.796,0.195s-1.756-0.975-2.991-0.91c-1.236,0.065-2.861,1.691-2.081,1.821
			c0.78,0.13,1.366-0.13,1.496,0.26c0.13,0.391-0.13,0.715,0.325,0.911c0.454,0.195,1.3,0.715,0.194,0.455
			c-1.106-0.26-0.585-0.715-2.275-0.78c-1.69-0.065-2.731-0.585-4.487-0.13c-1.756,0.455-1.495,0.845-2.665,0.455
			c-1.171-0.39-3.642-1.3-5.593-0.911c-1.95,0.391-4.356,1.041-4.941,1.431s0.585,0.78-0.455,0.845c-1.041,0.065-3.512,0-2.991,0.65
			s1.17,0.715,0.39,0.845c-0.78,0.13-1.82,0.195-2.211,0.78c-0.39,0.585-1.82,0.91-0.91,1.171c0.91,0.26,2.406,0.845,1.756,0.91
			s-3.967,1.366-5.397,1.69c-1.43,0.325-2.601,1.886-1.365,1.431c1.569-0.578,5.787-1.886,6.567-2.211
			c0.78-0.325,1.105-0.065,1.041,0.39c-0.065,0.455,0.91-0.195,1.69-0.78c0.78-0.585,0.78-1.756,1.431-1.365
			c0.65,0.39,1.04,0,1.561-0.13c0.52-0.13,1.04-0.455,1.495-0.195c0.455,0.261,1.626,0.521,1.95,0.781
			c0.326,0.26,0.456,0.845,0.131,0.91c-0.325,0.065-0.391,0.39-0.325,0.91c0.065,0.521,0.325,0.976-0.325,1.105
			c-0.65,0.129-0.52,0.91-0.13,0.845c0.39-0.065,0.649-0.26,0.715-0.65s0.911-1.105,0.78-0.585c-0.13,0.52-0.455,1.041-0.455,1.431
			c0,0.39-0.455,0.325-0.52,0.715c-0.065,0.39,0.064,0.39,0.39,0.715c0.326,0.325,0.13,0.52,0.065,1.235
			c-0.065,0.715-2.016,2.666-2.276,3.316c-0.26,0.65-0.13,1.56-0.13,2.275c0,0.715-0.26,1.626,0.455,1.886
			c0.716,0.26,0.78,0.39,0.78,1.04s0,1.431,0.39,1.886c0.391,0.455,0.195,0.39,0.195,1.105c0,0.715,0.455,0.325,0.521,0.91
			c0.065,0.585-0.325,0.846,0.325,1.301s1.365,0.78,1.04,0.065c-0.325-0.715-0.52-1.301-0.845-2.341
			c-0.325-1.041-0.521-2.926-0.131-2.341c0.391,0.585,0.911,2.341,1.496,3.576s1.3,1.105,1.3,2.016c0,0.911-0.715,1.756,0.716,2.341
			c1.431,0.585,2.471,1.821,3.316,1.691c0.846-0.13,1.365-0.65,1.69-0.065c0.325,0.585,1.04,1.366,1.821,1.366
			c0.78,0,1.04,0.52,1.17,1.3c0.13,0.781,0.65,0.911,1.431,1.171c0.781,0.26,0.976,1.105,1.561,1.04
			c0.585-0.064,1.365-0.325,1.365,0.26s0.261,2.016-0.715,2.926c-0.976,0.911-1.431,1.561-0.91,2.146
			c0.52,0.585,0.064,1.17-0.195,1.625c-0.261,0.456,0.195,0.846,0.715,1.561c0.521,0.715,1.236,1.561,1.69,2.991
			c0.455,1.431,1.106,1.951,2.211,2.406c1.105,0.456,1.951,1.236,1.951,2.341c0,1.106-0.065,4.876-0.065,5.982
			c0,1.106,0.586,2.211,0.391,3.057c-0.195,0.846,0,1.561,0.26,1.885c0.261,0.326,0.195,1.041,0.261,1.757
			c0.064,0.716,0.845,0.194,0.845,0.845c0,0.651-0.325,1.626,0.065,1.951c0.39,0.325-0.455,1.495,1.3,2.602
			c1.756,1.104,1.886,1.17,2.017,1.365c0.13,0.195,0.715-0.391,0.715-0.066c0,0.326-0.976,1.301,0.846,1.301
			c1.82,0,2.926,0.262,1.82-0.585c-1.105-0.845-1.756-0.454-1.951-1.3c-0.195-0.846-0.454-0.715-0.585-1.301
			c-0.13-0.586,0.455-0.846,0.261-1.431c-0.195-0.585-0.976-0.585-0.911-1.17s0.521-1.171,0.65-1.431
			c0.131-0.261,0.131-0.521-0.195-0.78c-0.325-0.261-0.26-0.325,0.195-0.456c0.455-0.129,0.521,0.065,0.716-0.585
			c0.194-0.649,0.779-0.585,1.04-0.78c0.26-0.195,1.171-0.455,0.845-1.3c-0.324-0.845-0.975-1.235-0.26-1.235
			c0.715,0,1.431-0.065,1.886-0.976s0.261-1.106,0.78-1.82c0.521-0.716,0.586-1.301,0.586-1.821s-0.261-1.04,0.455-1.365
			c0.715-0.325,3.056-0.716,3.381-1.691s0.65-2.016,0.52-3.056s-0.194-1.69,0.521-2.536c0.715-0.846,1.625-1.561,1.625-2.341
			C61.498,55.719,61.819,54.611,60.648,54.287z M72.677,11.565c0.716-0.78,0.521-1.171,1.496-1.561
			c0.976-0.391,0.715-0.911,0.585-1.691c-0.13-0.78,0-0.455,0.391-0.715c0.39-0.26,0.976-0.455,1.886-0.52
			c0.91-0.065,0.064-0.39,0.064-0.78c0-0.39-0.649-0.325-1.561-0.195c-0.91,0.13-0.78,0-1.43-0.26c-0.65-0.26-4.487-0.26-5.463-0.26
			c-0.975,0-2.73,0.195-3.641,0.26c-0.91,0.065-0.846,0-2.602-0.195c-1.756-0.195-6.372-0.065-8.062,0.13
			c-1.691,0.195-2.927,0.391-4.032,1.106c-1.105,0.715-1.82,0.455-3.056,0.584c-1.235,0.13-1.365,0.13-1.951,0.13
			c-0.585,0-0.52-0.325-1.561,0.065c-1.04,0.39-0.715,0.65-1.105,0.13c-0.39-0.521-0.91,0-2.73,0.455
			c-1.82,0.455,0.65,0.976,1.235,1.17c0,0,1.235-0.065,1.95-0.26c0.716-0.195,1.041,0.26,1.496,0.13s0.585-0.585,3.186-1.171
			c2.602-0.585,4.422-0.13,5.463,0.326c1.04,0.455,1.04,0.195,1.95-0.391c0.91-0.586,2.471-1.04,4.097-1.3
			c1.626-0.26,0.586,0.325-0.455,0.715c-1.04,0.391-1.951,0.261-1.756,0.911c0.195,0.65,2.211,0.455,2.797,0.455
			c0.584,0,0.649,0.91,0.715,1.431c0.064,0.521-0.065,0.78,0.064,1.301c0.131,0.52,0.455,0.455-0.13,0.975
			c-0.585,0.521-0.911,0.455-0.911,1.366c0,0.91,0.391,1.885,1.302,2.536c0.91,0.65,1.431,0.715,1.95-0.325
			c0.521-1.041,1.756-1.691,2.406-2.016c0.65-0.325,1.561,0,2.406-0.78c0.845-0.78,1.95-0.455,3.186-0.845
			S71.962,12.346,72.677,11.565z M73.978,13.061c-1.95,0.26-3.771-0.391-3.445,0.65c0.324,1.041,0.39,2.601,1.43,2.276
			c1.787-0.559,3.771-0.845,3.316-1.691C74.824,13.451,75.929,12.801,73.978,13.061z M86.394,8.655
			c0.07,0.02,0.14,0.026,0.199,0.049c0.65,0.26,1.105-0.13,1.17-0.65c0.715-1.04,0.455,0.845,1.236,0.521
			c0.779-0.325,1.885-1.106,2.795-1.561c0.911-0.456-1.104-0.26-2.73-0.521c-1.626-0.26-3.901,0.195-4.552,0.65
			C83.906,7.567,85.445,8.386,86.394,8.655z M96.932,7.273c0,0-0.325,0.456,0.455,0.456c0.78,0,2.406-0.521,3.706-0.521
			c1.301,0,0.91-0.455,0.65-0.455c-0.26,0-0.976-0.715-2.016-0.65c-1.041,0.065-0.976,0.52-1.626,0.52
			c-0.649,0-0.521-0.195-1.886-0.13C94.85,6.558,96.216,7.144,96.932,7.273z M141.864,57.667c1.04,0.13,1.82,0,2.536-0.39
			c0.715-0.39,0.39-0.846,0.324-1.041c-0.064-0.195-0.585,0.195-1.3,0.326c-0.716,0.13-0.91,0.13-1.821,0.195
			c-0.91,0.065-0.325-0.325-1.3-0.39c-0.976-0.065-1.951-0.26-3.056-0.65c-1.106-0.39-1.691-0.715-2.472-0.976
			c-0.781-0.261-0.065-0.715-0.13-1.82s-0.78-0.65-1.365-1.041c-0.586-0.39-0.391-1.235-0.131-0.975
			c0.261,0.26,0.326,0.585,0.326-0.781c0-1.365-1.236-2.275-2.016-3.445c-0.781-1.171-0.651-1.821-0.586-2.406
			c0.064-0.585,1.431,0.52,2.146,1.365c0.716,0.846,0.716,0.846,1.105,0.65c0.391-0.195,1.561-0.846,1.82-1.886
			c0.261-1.041-2.08-3.121-2.405-4.097c-0.325-0.975,0.455-0.39,0.846-1.04c0.39-0.65,0.845,0.26,0.585,0.715
			c-0.261,0.456,0.064,0.716,0.325,1.171c0.26,0.455,0.26,0,0.52-0.585c0.261-0.586,0.065-0.78,0.521-1.171
			c0.455-0.39,2.211-0.91,2.666-1.366c0.455-0.455,0.78-0.975,1.365-2.601c0.586-1.625-0.064-1.561-0.325-2.146
			c-0.26-0.585-1.04-1.561-1.495-2.146c-0.455-0.585-0.065-0.455,0.26-0.65c0.325-0.195,0.065-0.65-0.715-0.911
			c-0.78-0.26-0.65,0.26-1.365,0.13c-0.716-0.13-0.325-0.65,0.455-1.561c0.78-0.91,0.39,0.196,0.91,0.585
			c0.521,0.391,0.65-0.325,1.04-0.13c0.391,0.195,1.171,0.585,1.756,1.366c0.585,0.78,0.585,1.69,1.171,1.625
			c0.585-0.065,0.585-0.325,0.845-0.91c0.26-0.585-0.715-1.106-1.17-1.561c-0.456-0.456-0.91-0.456-0.521-0.846
			c0.389-0.39,0.064-0.975,0.26-1.43c0.195-0.456,0.911-0.195,1.626-0.521c0.716-0.325,0.78-1.431,0.78-2.601
			c0-1.17-0.585-1.69-0.91-2.081c-0.325-0.391,0.39-0.195,0.975,0.26c0.586,0.456,1.496,2.926,1.691,3.901
			c0.194,0.976,0.064,0.976,0.845,1.821c0.781,0.845,0.521,0.715,0.261,1.69c-0.261,0.975-0.911,1.235-1.886,1.496
			c-0.976,0.26-0.65,0.455-1.235,1.431c-0.586,0.975,0.324,1.04,0.845,1.3c0.521,0.26,0.78-0.715,1.431-1.17s1.365-0.78,2.471-0.78
			s-0.325-1.496-0.39-2.276s-0.13-1.301-0.391-1.886c-0.26-0.585,0.261-0.585,1.041-0.976c0.78-0.39,0.715-1.17,0.26-1.17
			c-0.455,0-0.846,0.325-1.886,0.26s-0.78-0.91-1.04-1.235c-0.261-0.325-0.586-1.041-0.65-1.626
			c-0.065-0.585-0.976-1.365-1.626-1.95s-1.04-0.976-1.04-0.715c0,0.26-0.391-0.065-1.301-0.13c-0.91-0.064-1.105,0.13-1.886,0.065
			c-0.78-0.065,0.065-1.366,0.39-2.276c0.326-0.911,1.236-0.391,1.951-0.391c0.716,0,1.041,0.065,2.081,0.325
			c1.04,0.26,0.585-0.65,0.78-1.365c0.195-0.715,0.65-0.325,1.235-0.065c0.585,0.26,0.78,0.325,0.78-0.26s0.521-0.715,0.976-0.195
			c0.455,0.521-0.78,1.626-0.78,1.626s-0.391,1.17,0.325,1.56c0.715,0.391,2.146,2.081,2.991,2.667
			c0.845,0.585,0.26-0.976,0.26-2.081s-0.78-0.975-1.365-2.016s-0.195-0.585,0.91-0.585c1.105,0,1.171-0.391,1.431-0.715
			c0.26-0.326,0.455-0.391,1.431-0.391c0.975,0,0.39-0.39-0.065-0.91s-1.365-0.39-1.04-0.715c0.324-0.325,2.08,0.195,2.926,0.521
			c0.846,0.325,0.65,0.065,0.521-0.715c-0.129-0.78-0.846-0.195-2.927-0.976c-2.08-0.78-4.356-1.235-5.071-1.235
			c-0.716,0-0.195-0.455,0.325-0.455s0.39-0.455-0.13-0.715c-0.521-0.26-0.976-0.065-1.171,0.52c-0.195,0.585,0.585,0.65-0.91,0.65
			s-2.602,0-4.356-0.325c-1.756-0.325-2.406-0.325-3.902-0.39c-1.495-0.065-1.365-0.715-2.926-0.715s-1.04-0.585-1.69-1.3
			c-0.65-0.715-0.975-0.52-2.926-0.52c-1.951,0-0.91,0.78-0.521,0.91c0.391,0.13,1.431,0.455,2.146,1.105
			c0.716,0.65-1.3,0.39-2.146,0.455c-0.846,0.065-0.78-0.455-1.756-1.041c-0.976-0.585-3.381-0.26-4.747-0.325
			c-1.365-0.065-1.43,0-1.95-0.975c-0.521-0.976-1.626-0.456-3.057-0.456c-1.43,0-2.21-0.715-2.926-1.17
			c-0.715-0.456-1.82-0.521-3.382-0.78c-1.56-0.26-0.715,0.975-0.13,1.04c0,0,0.651,0.26,1.301,0.325
			c0.65,0.065,2.017,0.13,2.731,0.976c0.714,0.846-2.211,0.52-3.512,1.235c-1.301,0.715-2.341,0.39-3.251,0.78
			s0.455,1.041,0.78,1.886c0.325,0.845,0,0.845-0.585,1.041c-0.586,0.195,0.195-0.911-0.065-1.235
			c-0.26-0.326-1.235-2.016-2.016-2.537c-0.78-0.52-0.65,0.456-0.52,1.171c0.129,0.715,0.324,0.715,0.52,1.235
			c0.196,0.52-0.846,0-1.365-0.39c-0.521-0.39-2.211,0.521-2.991,0.13c-0.78-0.39,0.26-0.26,0.26-0.65c0-0.39-0.91-0.065-1.171-0.65
			c-0.26-0.585,1.626-1.3,2.797-1.496c1.17-0.195,1.04-0.195,1.04-0.78s-2.081-0.39-3.837,0.455c-1.755,0.845-1.3,1.431-1.56,2.016
			c-0.261,0.585,0.585,0.65,0.975,0.975c0.391,0.325-0.455,0.456-1.235,0.715c-0.78,0.259-0.975,0-1.885,0.325
			c-0.911,0.325-0.391,0.715-1.171,1.041c-0.78,0.325-0.716,0.325-1.366,0.585c-0.649,0.26,0.131-0.976,1.041-1.105
			c0.91-0.129,0.65-0.65,0.391-0.845c-0.261-0.195-1.951-0.715-3.771-1.236c-1.821-0.52-4.747,0.195-5.723,0.65
			c-0.976,0.456-0.91,0.78-1.04,1.431c-0.13,0.651-2.341,1.625-3.446,2.211c-1.105,0.586-0.131,1.366,0.194,1.886
			s1.041,0.26,1.951,0c0.91-0.26,0.78,0.845,0.91,1.235c0.13,0.39,0.65,0.456,1.496,0.065c0.845-0.39,0.649-1.3,0.649-1.82
			c0-0.521-0.194-0.78,0.391-1.496c0.585-0.716,1.105-1.171,1.625-1.496c0.521-0.326,0.456,0.26-0.324,0.91
			c-0.781,0.65-0.26,0.845,0.13,1.625c0.39,0.78,1.17,0,2.146-0.13s-0.845,0.845-1.561,0.845c-0.715,0,0,0.78-0.455,0.78
			s-0.52,0.325-0.585,1.105c-0.065,0.781-0.325,0.585-0.846,0.781c-0.521,0.195-1.3,0.26-2.146,0.064
			c-0.846-0.195-0.78-0.976-1.365-1.496c-0.586-0.52-0.716,0.26-0.716,0.585c0,0.325-0.585,1.041-0.845,1.041
			c-0.261,0-1.041,0.78-1.496,1.43s-0.78,0.26-0.91,0c-0.13-0.26,0.324-0.65,0.065-1.3c-0.261-0.65-1.302-1.17-0.976-2.666
			c0.325-1.496-0.391-0.715-1.431-0.585c-1.041,0.13-1.366,0.585-1.431,0.975c-0.065,0.39-0.65,1.17-1.301,1.886
			c-0.651,0.716-0.195,1.3,0.131,2.081c0.324,0.78,1.17-0.26,1.43-0.91c0.26-0.65,0.586-0.975,0.976-0.65
			c0.391,0.325-0.585,0.91-0.716,1.69c-0.13,0.781,0.261,0.715,1.171,0.456c0.91-0.26,0.455-0.456,1.171-0.13
			c0.715,0.325-0.65,0.585-1.496,0.65c-0.846,0.065-0.52,0.65,0.195,1.17c0.715,0.521,0.391,1.301-0.064,1.366
			c-0.456,0.065-1.301,0.195-2.602,0.455c-1.301,0.26-0.13,1.3-0.391,1.886c-0.26,0.585-0.324,1.886,0.261,1.951
			s0.585,1.041,0.26,1.365c-0.325,0.326-0.39,0.65-1.17,1.236c-0.781,0.585-0.195,1.105-0.456,1.886
			c-0.26,0.78-0.91,0.325-1.69,1.17c-0.78,0.845-1.104,1.496-1.69,2.471c-0.585,0.976-0.65,1.041,0.065,2.211
			c0.715,1.17,0,1.496-0.586,2.536c-0.585,1.041,0.196,1.106,0.455,2.016c0.261,0.91,0.78,0.715,0.976,1.625
			c0.196,0.91,0.455,1.171,1.366,1.82c0.91,0.651,1.82,1.561,2.275,1.366c0.455-0.195,1.171-0.715,2.666-0.65
			c1.495,0.065,0.976-0.65,2.536-0.911c1.561-0.26,0.715,0.195,0.91,0.65c0.195,0.456,1.04,0.911,2.211,0.976
			c1.17,0.065,0.195,1.495,0.13,2.406c-0.064,0.91,0,0.91,0.585,1.69c0.586,0.78,1.366,2.536,1.561,3.446
			c0.195,0.91-0.194,1.951-0.715,2.796c-0.52,0.845-0.325,2.796,0.78,4.227c1.105,1.43,0.455,1.365,0.455,2.861
			c0,1.494,0.78,1.234,1.365,2.08s0.325,2.406,0.846,3.252c0.521,0.844,1.431,0.064,2.471-0.326c1.041-0.391,1.496-0.26,2.731-1.17
			c1.235-0.91,2.211-2.73,2.211-3.252c0-0.52,0.39-0.715,1.04-0.975c0.65-0.26,0.521-1.951,0.455-2.406
			c-0.065-0.456,0.13-0.845,0.391-1.106c0.26-0.26,1.886-1.82,2.471-2.471c0.585-0.65,0.064-1.561-0.065-2.601
			c-0.13-1.04-0.52-1.43-0.52-2.666c0-1.236-0.391-1.105,1.756-3.121c2.145-2.016,4.161-5.202,4.355-5.917
			c0.195-0.715,0.131-1.3,0-1.82c-0.129-0.521-2.926,0.52-3.576,0.52s-1.82-1.431-1.95-1.951c-0.13-0.521-1.105-1.041-1.951-1.821
			c-0.845-0.78-0.194-1.886-0.845-2.731s-0.976-2.081-1.105-2.796c-0.131-0.715,0.975,0.521,1.82,1.496
			c0.846,0.976,1.951,2.796,2.275,3.446c0.326,0.65,0.586,1.626,0.65,2.406c0.065,0.78,0.586,0.91,1.366,0.845
			c0.78-0.065,3.511-1.496,4.486-1.951c0.975-0.455,2.146-1.821,2.601-3.121c0.455-1.3-0.975-1.105-1.625-1.756
			c-0.65-0.651-0.65,0-1.431,0.195c-0.78,0.195-1.431-0.846-2.666-2.016c-1.235-1.171-0.455-0.78-0.195-1.041
			c0.26-0.261,1.496,0.585,2.211,1.43c0.716,0.845,0.846,0.521,1.69,0.521c0.846,0,1.041,0.39,2.146,0.715
			c1.104,0.325,1.69-0.13,2.635-0.03c0.946,0.1,0.811,0.55,1.462,1.59c0.649,1.04,0.39,0.715,1.82,0.845c1.43,0.13,0.39,0,0.39,0.91
			s0.131,1.236,0.977,2.341c0.845,1.105,1.17,3.186,1.43,4.227c0.26,1.04,0.78,0,1.625,0c0.846,0,0.065,0.715,0.716,1.755
			c0.65,1.041,1.105-0.325,1.105-0.715c0-0.39-0.391-1.365-0.78-1.69c-0.391-0.325-0.91-0.26-0.455-0.781
			c0.455-0.52,0.064-1.04,0.064-1.755c0-0.715,0.065-1.235,0.391-1.561c0.326-0.326,1.496-1.496,2.211-2.341
			c0.715-0.845,1.301-0.976,2.275-0.911c0.976,0.065,0.195,0.195,0.78,0.976c0.585,0.781,0.715,1.886,1.366,2.666
			c0.65,0.78,0.715-0.13,1.234-0.39c0.521-0.26,0.196,0.78,0.586,1.561c0.391,0.781,0.13,1.821,0.13,2.536s0.845,1.43,1.366,2.081
			c0.52,0.65,0.324,0.976,0,1.235c-0.326,0.26-0.976-0.65-1.496-1.17c-0.521-0.521-1.301-0.195-0.78,0.39s0.846,1.625,1.431,2.731
			c0.585,1.105,1.82,2.406,2.666,3.576c0.846,1.17,3.576,1.69,4.616,1.69C138.743,56.627,140.824,57.538,141.864,57.667z
			 M96.737,32.438c-0.39,0.78-0.585,1.301-1.171,1.105c-0.585-0.195-2.535-0.13-3.512-0.455c-0.975-0.325-2.405-0.91-2.665-0.195
			c-0.26,0.715,0.65,1.3-0.976,0.715c-1.625-0.585-3.381-1.3-3.576-1.821c-0.195-0.52,0.65-1.951-0.521-1.951
			c-1.17,0-2.796-0.065-3.316,0.325c-0.52,0.39-2.535,1.105-3.187,0.91c-0.591-0.177-1.495-0.39-0.455-0.845
			c1.041-0.455,2.276-0.195,2.406-0.845c0.13-0.65-0.91-0.78,0.13-1.366c1.04-0.585,0.65-1.105,1.366-1.431
			c0.715-0.325,1.69-0.26,2.211-0.455c0.52-0.195-0.195-0.391,0.845,0.195c1.04,0.586,1.69,1.69,2.211,1.756
			c0.521,0.064,0.846,0.455,0.521,0.715c-0.325,0.26-0.846,0.456-1.041,0.456c-0.194,0-0.324,0.52-0.13,0.585
			c0.195,0.065,0.65,0.911,0.976,0.65c0.326-0.261,0-0.65,0.585-0.845c0.585-0.195,1.171-0.456,0.911-0.846
			c-0.261-0.39-0.521-0.845,0-0.585c0.52,0.26,0.975,0.13,0.39-0.455c-0.585-0.585-0.78-0.585-1.495-1.105
			c-0.716-0.52-1.496-0.78-1.496-1.17s-0.455-1.105,0.26-0.845c0.716,0.26,3.187,1.625,3.187,2.146c0,0.52,0.65,1.43,0.065,1.885
			c-0.586,0.456,0.585,0.585,0.845,0.845c0.261,0.26,0.13,0.976,0.846,0.845c0.715-0.13,1.235-0.065,0.845-0.78
			c-0.39-0.715-1.04-1.04-0.39-1.3c0.649-0.26,0.78-0.585,0.976,0.52c0.195,1.106-0.065,1.496,1.495,1.561
			c1.561,0.065,2.601-0.39,2.796,0.065C96.868,30.877,97.126,31.658,96.737,32.438z M99.273,27.562
			c-1.041-0.065-2.797-0.391-3.642-0.391c-0.846,0-1.171,0.13-1.171,0.13c-0.715-0.13-2.406,0.325-1.561-0.781
			c0.846-1.105,0.325-2.536,1.366-2.146c1.04,0.39,1.105,1.886,1.755,0.976c0.65-0.911,1.366-1.951,1.561-1.236
			c0.195,0.715-0.91,1.301,0.456,1.886C99.403,26.585,100.313,27.626,99.273,27.562z M105.515,29.967
			c-0.976,0-2.146-0.195-2.146-0.715c0-0.521,0-1.236,0-1.236c-0.521-1.235-1.171-1.496-1.171-2.341
			c0-0.845,0.521-1.561,1.561-1.561c1.04,0,1.561-0.13,0.78,0.78c-0.781,0.91-1.495,0.976-0.455,2.406
			C105.125,28.731,106.491,29.967,105.515,29.967z M140.826,38.749c0.513,0.146,0.658-1.973-0.291-1.68
			C139.584,37.361,140.226,38.578,140.826,38.749z M142.142,44.96c0.438,0.292,0.512,0.804,0.438,1.607
			c-0.072,0.804-0.803,0.731,0.439,1.242c1.241,0.512,2.703,1.389,2.338-0.219c-0.365-1.608-0.073-1.827-1.389-3.069
			c-1.314-1.242-1.388-0.438-1.534-1.461s-0.512-2.923-1.023-2.192c-0.45,0.645-0.803,0.877-0.292,1.973
			C141.63,43.937,141.703,44.667,142.142,44.96z M139.365,47.518c-0.441,0.568-1.315,1.826-1.899,2.265
			c-0.584,0.439-1.607-0.146-1.534,0.877c0.073,1.022,0.146,1.461,0.219,2.192c0.073,0.731,0.219,1.169,1.315,1.169
			c1.096,0,1.607,0.366,1.974,0.219c0.364-0.146,0.292-0.804,0.729-1.681c0.438-0.877,1.17-0.657,0.877-1.315
			c-0.292-0.658-0.292-0.512-0.292-1.169c0-0.657,0.365-0.219,0.146-1.315C140.68,47.664,139.876,46.86,139.365,47.518z
			 M154.783,54.312c-0.949-1.022-2.557-1.753-3.216-1.68c-0.656,0.073-1.241,1.096-1.606,0.73c-0.365-0.365-1.462-2.119-2.047-1.607
			c-0.584,0.512,0.073,1.096-0.657,1.096s-0.95,0.877-1.097-0.292c-0.145-1.169-0.73-1.754-0.876-0.877s-0.219,1.461-0.584,0.804
			c-0.366-0.658-0.585-0.219-0.585-0.876c0-0.657-1.461-1.389-2.046-0.658c-0.365,0.456-0.511,0.511-0.657,1.534
			s-0.513,2.631,0.291,2.193c0.805-0.439,0.951-0.074,1.316-0.585c0.365-0.511,0.804-0.803,1.461-0.511
			c0.658,0.292,0.365,0.292,1.535,0.146c1.168-0.146,1.753-0.146,2.557,0.365c0.805,0.512,2.411,0.219,2.411,0.731
			c0,0.512-1.681,0.877,0,1.388c1.681,0.511,2.046,1.681,2.558,1.097c0.512-0.585,1.242-1.389,1.754-0.804
			c0.511,0.585,2.483,2.192,2.119,1.315c-0.366-0.876-0.293-1.681,0.877-2.63c1.169-0.95,0.876-1.388,0.364-1.388
			c-0.511,0-0.511,0.657-1.68,0.803C155.805,54.751,155.733,55.335,154.783,54.312z M155.294,63.739
			c-0.658-1.681-0.658-2.996-1.023-3.727c-0.365-0.73-0.073-1.607-1.169-1.607c-0.444,0-0.438,0.292-0.804,1.242
			c-0.365,0.95,0.073,2.704-0.877,2.484c-0.95-0.219-1.388-0.657-1.607-1.607c-0.219-0.95,0.293-1.827-0.438-1.827
			s-2.777-0.511-3.289,0.292c-0.512,0.803,0.146,1.096-0.949,1.096c-1.097,0-1.535,0-2.119,0.73
			c-0.585,0.731-1.389,2.777-4.531,2.923c-3.142,0.146-1.534,1.827-1.534,3.653c0,1.826-1.681,2.923-0.949,3.58
			c0.73,0.658-0.22,1.535,1.314,1.023c1.534-0.512,2.923-0.658,5.335-1.023c2.41-0.365,3.506-0.512,3.58,0.658
			c0.072,1.168-0.293,0.365,0.657,0.584c0.95,0.219-0.072,1.754,1.023,1.9c1.096,0.146,0.438,0.949,1.388,0.949
			c0.95,0,1.315,1.023,0.512,1.023s-1.973,1.68-0.804,1.096c1.169-0.584,2.338-0.73,2.338-1.607s-0.146-0.949,1.242-2.045
			c1.389-1.098,4.604-3.728,4.385-5.846C156.755,65.566,155.953,65.419,155.294,63.739z M164.866,72.506
			c-0.584-0.292-0.584,0.22-0.95,1.315c-0.364,1.097-2.191,1.535-2.483,1.754c-0.292,0.219-0.877,0.877-0.877,0.877
			c-1.388,0.877-4.092,1.754-3.435,2.484c0.657,0.73,1.097,0.292,2.703-0.512c1.608-0.804,2.047-1.826,2.924-2.411
			c0.877-0.585,1.388-0.511,2.046-1.242C165.451,74.041,165.451,72.798,164.866,72.506z"/>
	</g>
</g>
</svg>
