<?xml version="1.0" encoding="utf-8"?>
<!-- Generator: Adobe Illustrator 16.0.0, SVG Export Plug-In . SVG Version: 6.00 Build 0)  -->
<!DOCTYPE svg PUBLIC "-//W3C//DTD SVG 1.1//EN" "http://www.w3.org/Graphics/SVG/1.1/DTD/svg11.dtd">
<svg version="1.1" id="Layer_1" xmlns="http://www.w3.org/2000/svg" xmlns:xlink="http://www.w3.org/1999/xlink" x="0px" y="0px"
	 width="40.594px" height="166px" viewBox="51.594 0 40.594 166" style="enable-background:new 51.594 0 40.594 166;"
	 xml:space="preserve">
<g>
	<g>
		<g>
			<g>
				<g>
					<polyline style="fill:none;stroke:#EA1D5B;stroke-miterlimit:10;" points="63.313,157.119 83.444,157.119 83.444,8.882 
						63.313,8.882 					"/>
					<g>
						<path style="fill:#E9215C;" d="M63.313,155.287c1.01,0,1.83,0.818,1.83,1.832c0,1.009-0.82,1.828-1.83,1.828
							s-1.83-0.819-1.83-1.828C61.483,156.107,62.303,155.287,63.313,155.287z"/>
						<path style="fill:none;stroke:#EA1D5B;stroke-width:0.236;stroke-miterlimit:10;" d="M63.313,154.143
							c1.645,0,2.975,1.332,2.975,2.977c0,1.644-1.33,2.974-2.975,2.974c-1.643,0-2.975-1.33-2.975-2.974
							S61.67,154.144,63.313,154.143z"/>
					</g>
					<g>
						<circle style="fill:#E9215C;" cx="63.312" cy="8.882" r="1.831"/>
						<circle style="fill:none;stroke:#EA1D5B;stroke-width:0.236;stroke-miterlimit:10;" cx="63.312" cy="8.882" r="2.974"/>
					</g>
				</g>
				<g>
					<line style="fill:none;stroke:#EA1D5B;stroke-miterlimit:10;" x1="80.393" y1="16.199" x2="73.377" y2="16.199"/>
					<line style="fill:none;stroke:#EA1D5B;stroke-miterlimit:10;" x1="80.393" y1="24.551" x2="73.377" y2="24.551"/>
					<line style="fill:none;stroke:#EA1D5B;stroke-miterlimit:10;" x1="80.393" y1="32.9" x2="73.377" y2="32.9"/>
					<line style="fill:none;stroke:#EA1D5B;stroke-miterlimit:10;" x1="80.393" y1="41.249" x2="73.377" y2="41.249"/>
					<line style="fill:none;stroke:#EA1D5B;stroke-miterlimit:10;" x1="80.393" y1="49.601" x2="73.377" y2="49.601"/>
					<line style="fill:none;stroke:#EA1D5B;stroke-miterlimit:10;" x1="80.393" y1="57.95" x2="73.377" y2="57.95"/>
					<line style="fill:none;stroke:#EA1D5B;stroke-miterlimit:10;" x1="80.393" y1="66.301" x2="73.377" y2="66.301"/>
					<line style="fill:none;stroke:#EA1D5B;stroke-miterlimit:10;" x1="80.393" y1="74.65" x2="73.377" y2="74.65"/>
					<line style="fill:none;stroke:#EA1D5B;stroke-miterlimit:10;" x1="80.393" y1="83.001" x2="73.377" y2="83.001"/>
					<line style="fill:none;stroke:#EA1D5B;stroke-miterlimit:10;" x1="80.393" y1="91.352" x2="73.377" y2="91.352"/>
					<line style="fill:none;stroke:#EA1D5B;stroke-miterlimit:10;" x1="80.393" y1="99.701" x2="73.377" y2="99.701"/>
					<line style="fill:none;stroke:#EA1D5B;stroke-miterlimit:10;" x1="80.393" y1="108.051" x2="73.377" y2="108.051"/>
					<line style="fill:none;stroke:#EA1D5B;stroke-miterlimit:10;" x1="80.393" y1="116.402" x2="73.377" y2="116.402"/>
					<line style="fill:none;stroke:#EA1D5B;stroke-miterlimit:10;" x1="80.393" y1="124.752" x2="73.377" y2="124.752"/>
					<line style="fill:none;stroke:#EA1D5B;stroke-miterlimit:10;" x1="80.393" y1="133.102" x2="73.377" y2="133.102"/>
					<line style="fill:none;stroke:#EA1D5B;stroke-miterlimit:10;" x1="80.393" y1="141.451" x2="73.377" y2="141.451"/>
					<line style="fill:none;stroke:#EA1D5B;stroke-miterlimit:10;" x1="73.377" y1="149.802" x2="80.393" y2="149.802"/>
				</g>
			</g>
		</g>
	</g>
</g>
</svg>
