<?xml version="1.0" encoding="utf-8"?>
<!-- Generator: Adobe Illustrator 16.0.0, SVG Export Plug-In . SVG Version: 6.00 Build 0)  -->
<!DOCTYPE svg PUBLIC "-//W3C//DTD SVG 1.1//EN" "http://www.w3.org/Graphics/SVG/1.1/DTD/svg11.dtd">
<svg version="1.1" id="Layer_1" xmlns="http://www.w3.org/2000/svg" xmlns:xlink="http://www.w3.org/1999/xlink" x="0px" y="0px"
	 width="1024px" height="40px" viewBox="0 0 1024 40" style="enable-background:new 0 0 1024 40;" xml:space="preserve">
<g>
	<rect x="-4.227" y="25.697" style="fill:#2DA9E1;" width="1022.83" height="3.393"/>
	<g>
		<line style="fill:none;stroke:#2DA9E1;stroke-miterlimit:10;" x1="614.636" y1="6.477" x2="1017.751" y2="6.477"/>
		<circle style="fill:#2DA9E1;" cx="1017.751" cy="6.477" r="3.249"/>
		<circle style="fill:#2DA9E1;" cx="614.636" cy="6.477" r="3.249"/>
	</g>
	<rect x="1010.878" y="25.697" style="fill:#2DA9E1;" width="7.726" height="11.074"/>
	<rect x="993.78" y="25.697" style="fill:#2DA9E1;" width="7.726" height="11.074"/>
	<rect x="976.683" y="25.697" style="fill:#2DA9E1;" width="7.726" height="11.074"/>
	<rect x="959.585" y="25.697" style="fill:#2DA9E1;" width="7.726" height="11.074"/>
	<rect x="942.487" y="25.697" style="fill:#2DA9E1;" width="7.725" height="11.074"/>
	<rect x="925.389" y="25.697" style="fill:#2DA9E1;" width="7.726" height="11.074"/>
	<rect x="908.291" y="25.697" style="fill:#2DA9E1;" width="7.726" height="11.074"/>
	<rect x="891.193" y="25.697" style="fill:#2DA9E1;" width="7.726" height="11.074"/>
	<rect x="874.096" y="25.697" style="fill:#2DA9E1;" width="7.726" height="11.074"/>
	<rect x="856.998" y="25.697" style="fill:#2DA9E1;" width="7.726" height="11.074"/>
	<rect x="839.9" y="25.697" style="fill:#2DA9E1;" width="7.726" height="11.074"/>
	<rect x="822.803" y="25.697" style="fill:#2DA9E1;" width="7.726" height="11.074"/>
	<rect x="805.705" y="25.697" style="fill:#2DA9E1;" width="7.726" height="11.074"/>
	<rect x="788.607" y="25.697" style="fill:#2DA9E1;" width="7.726" height="11.074"/>
	<rect x="675.372" y="25.697" style="fill:#2DA9E1;" width="7.726" height="11.074"/>
	<rect x="562.138" y="25.697" style="fill:#2DA9E1;" width="7.726" height="11.074"/>
	<rect x="448.903" y="25.697" style="fill:#2DA9E1;" width="7.726" height="11.074"/>
	<rect x="335.668" y="25.697" style="fill:#2DA9E1;" width="7.726" height="11.074"/>
	<rect x="222.434" y="25.697" style="fill:#2DA9E1;" width="7.726" height="11.074"/>
	<rect x="109.199" y="25.697" style="fill:#2DA9E1;" width="7.725" height="11.074"/>
	<g>
		<g>
			<line style="fill:none;stroke:#2DA9E1;stroke-miterlimit:10;" x1="158.427" y1="6.477" x2="357.676" y2="6.477"/>
			<circle style="fill:#2DA9E1;" cx="357.676" cy="6.477" r="3.249"/>
			<circle style="fill:#2DA9E1;" cx="158.427" cy="6.477" r="3.249"/>
		</g>
	</g>
	<g>
		<g>
			<line style="fill:none;stroke:#2DA9E1;stroke-miterlimit:10;" x1="379.391" y1="6.477" x2="464.566" y2="6.477"/>
			<circle style="fill:#2DA9E1;" cx="464.567" cy="6.477" r="3.249"/>
			<circle style="fill:#2DA9E1;" cx="379.392" cy="6.477" r="3.249"/>
		</g>
	</g>
	<g>
		<g>
			<line style="fill:none;stroke:#2DA9E1;stroke-miterlimit:10;" x1="495.866" y1="6.477" x2="581.041" y2="6.477"/>
			<circle style="fill:#2DA9E1;" cx="581.042" cy="6.477" r="3.249"/>
			<circle style="fill:#2DA9E1;" cx="495.866" cy="6.477" r="3.249"/>
		</g>
	</g>
</g>
</svg>
