<?xml version="1.0" encoding="utf-8"?>
<!-- Generator: Adobe Illustrator 16.0.0, SVG Export Plug-In . SVG Version: 6.00 Build 0)  -->
<!DOCTYPE svg PUBLIC "-//W3C//DTD SVG 1.1//EN" "http://www.w3.org/Graphics/SVG/1.1/DTD/svg11.dtd">
<svg version="1.1" id="Layer_1" xmlns="http://www.w3.org/2000/svg" xmlns:xlink="http://www.w3.org/1999/xlink" x="0px" y="0px"
	 width="92.188px" height="166px" viewBox="0 0 92.188 166" style="enable-background:new 0 0 92.188 166;" xml:space="preserve">
<g>
	<g>
		<g>
			<g>
				<g>
					<polyline style="fill:none;stroke:#EA1D5B;stroke-miterlimit:10;" points="82.84,3.495 62.71,3.495 62.71,151.733 
						82.84,151.733 					"/>
					<g>
						<path style="fill:#E9215C;" d="M84.671,151.733c0,1.008-0.82,1.828-1.831,1.828c-1.01,0-1.83-0.82-1.83-1.828
							c0-1.014,0.82-1.832,1.83-1.832C83.851,149.901,84.671,150.72,84.671,151.733z"/>
						<path style="fill:none;stroke:#EA1D5B;stroke-width:0.236;stroke-miterlimit:10;" d="M85.815,151.733
							c0,1.643-1.331,2.973-2.975,2.973c-1.643,0-2.974-1.33-2.974-2.973c0-1.645,1.331-2.977,2.974-2.977
							C84.484,148.757,85.815,150.089,85.815,151.733z"/>
					</g>
					<g>
						<circle style="fill:#E9215C;" cx="82.841" cy="3.495" r="1.831"/>
						<circle style="fill:none;stroke:#EA1D5B;stroke-width:0.236;stroke-miterlimit:10;" cx="82.841" cy="3.495" r="2.974"/>
					</g>
				</g>
				<g>
					<line style="fill:none;stroke:#EA1D5B;stroke-miterlimit:10;" x1="72.776" y1="10.813" x2="65.76" y2="10.813"/>
					<line style="fill:none;stroke:#EA1D5B;stroke-miterlimit:10;" x1="72.776" y1="19.164" x2="65.76" y2="19.164"/>
					<line style="fill:none;stroke:#EA1D5B;stroke-miterlimit:10;" x1="72.776" y1="27.514" x2="65.76" y2="27.514"/>
					<line style="fill:none;stroke:#EA1D5B;stroke-miterlimit:10;" x1="72.776" y1="35.863" x2="65.76" y2="35.863"/>
					<line style="fill:none;stroke:#EA1D5B;stroke-miterlimit:10;" x1="72.776" y1="44.214" x2="65.76" y2="44.214"/>
					<line style="fill:none;stroke:#EA1D5B;stroke-miterlimit:10;" x1="72.776" y1="52.564" x2="65.76" y2="52.564"/>
					<line style="fill:none;stroke:#EA1D5B;stroke-miterlimit:10;" x1="72.776" y1="60.914" x2="65.76" y2="60.914"/>
					<line style="fill:none;stroke:#EA1D5B;stroke-miterlimit:10;" x1="72.776" y1="69.264" x2="65.76" y2="69.264"/>
					<line style="fill:none;stroke:#EA1D5B;stroke-miterlimit:10;" x1="72.776" y1="77.614" x2="65.76" y2="77.614"/>
					<line style="fill:none;stroke:#EA1D5B;stroke-miterlimit:10;" x1="72.776" y1="85.965" x2="65.76" y2="85.965"/>
					<line style="fill:none;stroke:#EA1D5B;stroke-miterlimit:10;" x1="72.776" y1="94.314" x2="65.76" y2="94.314"/>
					<line style="fill:none;stroke:#EA1D5B;stroke-miterlimit:10;" x1="72.776" y1="102.664" x2="65.76" y2="102.664"/>
					<line style="fill:none;stroke:#EA1D5B;stroke-miterlimit:10;" x1="72.776" y1="111.015" x2="65.76" y2="111.015"/>
					<line style="fill:none;stroke:#EA1D5B;stroke-miterlimit:10;" x1="72.776" y1="119.365" x2="65.76" y2="119.365"/>
					<line style="fill:none;stroke:#EA1D5B;stroke-miterlimit:10;" x1="72.776" y1="127.715" x2="65.76" y2="127.715"/>
					<line style="fill:none;stroke:#EA1D5B;stroke-miterlimit:10;" x1="72.776" y1="136.064" x2="65.76" y2="136.064"/>
					<line style="fill:none;stroke:#EA1D5B;stroke-miterlimit:10;" x1="65.76" y1="144.415" x2="72.776" y2="144.415"/>
				</g>
			</g>
		</g>
		<g>
			<text transform="matrix(1.0457 0 0 1 0.0811 197.2275)" style="fill:#EA1D5B; font-family:'Dekar'; font-size:30;">CD3hr2</text>
		</g>
		<g>
			<g>
				<path style="fill:#E9215C;" d="M8.468,11.843h0.018v9.697H7.599v-4.645c-1.915,0-3.829,0-5.744,0c0,1.746,0,2.898,0,4.645H0.968
					c0-3.052,0-6.646,0-9.697c0-0.779,0.443-1.373,1.099-1.746c1.295-0.745,4.025-0.745,5.302,0
					C8.025,10.47,8.468,11.063,8.468,11.843z M1.855,11.843v4.205c1.915,0,3.829,0,5.744,0v-4.205c0-0.44-0.283-0.796-0.691-1.033
					c-1.011-0.594-3.387-0.577-4.379,0C2.121,11.047,1.855,11.402,1.855,11.843z"/>
				<path style="fill:#E9215C;" d="M16.375,20.676v0.864h-2.57c-1.703,0-3.369-0.661-3.369-2.543c0-3.103,0-6.222,0-9.324h0.904
					v9.324c0,1.271,1.383,1.679,2.465,1.679H16.375z"/>
				<path style="fill:#E9215C;" d="M17.208,9.673h7.643v0.746h-3.369L21.447,21.54h-0.904l0.035-11.121h-3.369V9.673z"/>
				<path style="fill:#E9215C;" d="M26.25,11.81c0-3.035,7.482-3.035,7.482,0v7.561c0,3.085-7.482,3.085-7.482,0V11.81z
					 M32.829,19.285l0.018-7.476c0-2.001-5.709-2.001-5.709,0l0.018,7.476c0,0.221,0.018,0.373,0.053,0.441
					c0.532,1.475,5.036,1.475,5.567,0C32.811,19.658,32.829,19.506,32.829,19.285z"/>
				<path style="fill:#E9215C;" d="M9.621,73.673c0.372,0,0.727,0,1.1,0V85.54H9.816v-9.511l0.124-1.203H9.886l-0.372,1.136
					l-3.298,6.73H5.49l-3.298-6.73l-0.373-1.136H1.766l0.124,1.203v9.511H0.986V73.673c0.354,0,0.727,0,1.1,0l3.759,7.9
					L9.621,73.673z"/>
				<path style="fill:#E9215C;" d="M13.557,79.166h5.709v0.864h-5.709c0,0.543-0.054,3.238,0.07,3.577
					c0.284,0.797,1.525,1.068,2.358,1.068h3.28v0.864h-3.28v-0.017c-1.507,0.017-3.315-0.661-3.315-2.272v-9.595
					c2.198,0,4.397,0,6.596,0v0.848h-5.709V79.166z"/>
				<path style="fill:#E9215C;" d="M21.039,85.54c0-3.983,0-7.917,0-11.884h4.309c1.436,0,3.227,0.695,3.227,2.289v7.289
					c0,1.628-1.826,2.306-3.351,2.306H21.039z M27.669,75.945c0-1.018-1.418-1.441-2.34-1.441h-0.071h-0.018h-3.298v10.172h3.28
					c0.833,0,2.092-0.271,2.376-1.085C27.723,83.251,27.669,77.386,27.669,75.945z"/>
				<path style="fill:#E9215C;" d="M31.535,73.656V85.54h-0.887c0-3.967,0-7.917,0-11.884H31.535z"/>
				<path style="fill:#E9215C;" d="M33.609,75.81c0-3.035,7.482-3.035,7.482,0v7.561c0,3.085-7.482,3.085-7.482,0V75.81z
					 M40.187,83.285l0.018-7.476c0-2.001-5.709-2.001-5.709,0l0.018,7.476c0,0.221,0.018,0.373,0.053,0.441
					c0.532,1.475,5.036,1.475,5.567,0C40.169,83.658,40.187,83.506,40.187,83.285z"/>
				<path style="fill:#E9215C;" d="M7.192,143.488c0.124,0.051,0.23,0.102,0.337,0.169c0.709,0.407,1.17,1.018,1.17,1.848v1.611
					v0.017c0,0.831-0.461,1.441-1.17,1.848c-0.639,0.373-1.489,0.56-2.341,0.56H0.951l0.018-11.867h4.22
					c0.745,0,1.489,0.17,2.057,0.492c0.639,0.355,1.046,0.915,1.064,1.661v1.967c-0.019,0.746-0.426,1.305-1.064,1.661
					L7.192,143.488z M1.836,143.098H5.17c0.55,0,1.152-0.084,1.631-0.372c0.391-0.221,0.621-0.543,0.621-0.967v-1.933
					c0-0.407-0.248-0.729-0.621-0.933c-0.443-0.254-1.028-0.373-1.613-0.373H1.836V143.098z M5.188,143.945H1.836v4.747h3.352
					c0.691,0,1.383-0.152,1.88-0.44c0.461-0.255,0.762-0.628,0.762-1.119v-0.017v-1.611c0-0.491-0.301-0.864-0.762-1.118
					c-0.497-0.306-1.171-0.441-1.862-0.441H5.188z"/>
				<path style="fill:#E9215C;" d="M17.936,139.843h0.018v9.697h-0.887v-4.645c-1.915,0-3.83,0-5.744,0c0,1.746,0,2.898,0,4.645
					h-0.887c0-3.052,0-6.646,0-9.697c0-0.779,0.443-1.373,1.1-1.746c1.294-0.745,4.024-0.745,5.301,0
					C17.493,138.47,17.936,139.063,17.936,139.843z M11.323,139.843v4.205c1.914,0,3.829,0,5.744,0v-4.205
					c0-0.44-0.283-0.796-0.691-1.033c-1.011-0.594-3.387-0.577-4.379,0C11.588,139.047,11.323,139.402,11.323,139.843z"/>
				<path style="fill:#E9215C;" d="M25.417,137.673v9.714c0,3.119-5.922,3.001-5.904,0.018l0.887,0.017
					c-0.018,1.949,4.113,1.949,4.113,0.085c0-3.188,0.019-6.662-0.018-9.833H25.417z"/>
				<path style="fill:#E9215C;" d="M27.261,139.81c0-3.035,7.482-3.035,7.482,0v7.561c0,3.085-7.482,3.085-7.482,0V139.81z
					 M33.839,147.285l0.018-7.476c0-2.001-5.709-2.001-5.709,0l0.018,7.476c0,0.221,0.018,0.373,0.053,0.441
					c0.532,1.475,5.036,1.475,5.567,0C33.822,147.658,33.839,147.506,33.839,147.285z"/>
			</g>
		</g>
	</g>
</g>
</svg>
