<?xml version="1.0" encoding="utf-8"?>
<!-- Generator: Adobe Illustrator 16.0.0, SVG Export Plug-In . SVG Version: 6.00 Build 0)  -->
<!DOCTYPE svg PUBLIC "-//W3C//DTD SVG 1.1//EN" "http://www.w3.org/Graphics/SVG/1.1/DTD/svg11.dtd">
<svg version="1.1" id="Layer_1" xmlns="http://www.w3.org/2000/svg" xmlns:xlink="http://www.w3.org/1999/xlink" x="0px" y="0px"
	 width="80px" height="80px" viewBox="0 0 80 80" style="enable-background:new 0 0 80 80;" xml:space="preserve">
<g>
	<g>
		<circle style="fill:#F0E910;" cx="78.096" cy="40" r="0.764"/>
		<circle style="fill:#F0E910;" cx="1.904" cy="40" r="0.764"/>
	</g>
	<g>
		<circle style="fill:#F0E910;" cx="74.965" cy="24.876" r="0.764"/>
		<circle style="fill:#F0E910;" cx="5.034" cy="55.123" r="0.764"/>
	</g>
	<circle style="fill:#F0E910;" cx="40" cy="1.903" r="0.763"/>
	<circle style="fill:#F0E910;" cx="40" cy="78.096" r="0.764"/>
	<g>
		<circle style="fill:#F0E910;" cx="25.156" cy="4.914" r="0.764"/>
		<circle style="fill:#F0E910;" cx="54.844" cy="75.085" r="0.764"/>
	</g>
	<g>
		<circle style="fill:#F0E910;" cx="66.938" cy="13.062" r="0.763"/>
		<circle style="fill:#F0E910;" cx="13.062" cy="66.937" r="0.764"/>
	</g>
	<circle style="fill:#F0E910;" cx="13.062" cy="13.062" r="0.763"/>
	<circle style="fill:#F0E910;" cx="66.938" cy="66.938" r="0.764"/>
	<g>
		<circle style="fill:#F0E910;" cx="56.815" cy="5.813" r="0.763"/>
		<circle style="fill:#F0E910;" cx="23.185" cy="74.184" r="0.764"/>
	</g>
	<circle style="fill:#F0E910;" cx="5.815" cy="23.184" r="0.763"/>
	<path style="fill:#F0E910;" d="M73.5,56.478c0.187-0.381,0.643-0.536,1.021-0.35c0.378,0.188,0.535,0.644,0.35,1.024
		c-0.187,0.376-0.646,0.532-1.023,0.346C73.468,57.314,73.313,56.855,73.5,56.478z"/>
	<path style="fill:#F0E910;" d="M39.88,3.527c-19.722,0-35.709,15.986-35.709,35.709c0,19.722,15.987,35.708,35.709,35.708
		c19.723,0,35.71-15.986,35.71-35.708C75.59,19.513,59.603,3.527,39.88,3.527z M39.88,69.408c-16.663,0-30.17-13.509-30.17-30.172
		c0-16.664,13.507-30.171,30.17-30.171c16.664,0,30.172,13.507,30.172,30.171C70.052,55.899,56.544,69.408,39.88,69.408z"/>
</g>
</svg>
