<?xml version="1.0" encoding="utf-8"?>
<!-- Generator: Adobe Illustrator 16.0.0, SVG Export Plug-In . SVG Version: 6.00 Build 0)  -->
<!DOCTYPE svg PUBLIC "-//W3C//DTD SVG 1.1//EN" "http://www.w3.org/Graphics/SVG/1.1/DTD/svg11.dtd">
<svg version="1.1" id="Layer_1" xmlns="http://www.w3.org/2000/svg" xmlns:xlink="http://www.w3.org/1999/xlink" x="0px" y="0px"
	 width="252.935px" height="12px" viewBox="0 0 252.935 12" style="enable-background:new 0 0 252.935 12;" xml:space="preserve">
<g>
	<g>
		<g>
			<polygon style="fill:#F0E910;" points="181.382,1.781 172.944,10.219 176.482,10.219 184.919,1.781 			"/>
		</g>
		<g>
			<polygon style="fill:#F0E910;" points="187.425,1.781 178.989,10.219 182.526,10.219 190.963,1.781 			"/>
		</g>
		<g>
			<polygon style="fill:#F0E910;" points="199.514,1.781 191.076,10.219 194.614,10.219 203.051,1.781 			"/>
		</g>
		<g>
			<polygon style="fill:#F0E910;" points="193.47,1.781 185.033,10.219 188.57,10.219 197.007,1.781 			"/>
		</g>
		<g>
			<polygon style="fill:#F0E910;" points="211.601,1.781 203.164,10.219 206.702,10.219 215.138,1.781 			"/>
		</g>
		<g>
			<polygon style="fill:#F0E910;" points="205.558,1.781 197.12,10.219 200.658,10.219 209.096,1.781 			"/>
		</g>
		<g>
			<polygon style="fill:#F0E910;" points="163.25,1.781 154.813,10.219 158.351,10.219 166.788,1.781 			"/>
		</g>
		<g>
			<polygon style="fill:#F0E910;" points="151.164,1.781 142.724,10.219 146.262,10.219 154.701,1.781 			"/>
		</g>
		<g>
			<polygon style="fill:#F0E910;" points="157.207,1.781 148.769,10.219 152.306,10.219 160.745,1.781 			"/>
		</g>
		<g>
			<polygon style="fill:#F0E910;" points="169.294,1.781 160.856,10.219 164.394,10.219 172.833,1.781 			"/>
		</g>
		<g>
			<polygon style="fill:#F0E910;" points="217.646,1.781 209.208,10.219 212.746,10.219 221.183,1.781 			"/>
		</g>
		<g>
			<polygon style="fill:#F0E910;" points="175.338,1.781 166.901,10.219 170.438,10.219 178.876,1.781 			"/>
		</g>
		<g>
			<polygon style="fill:#F0E910;" points="247.867,1.781 239.427,10.219 242.965,10.219 251.404,1.781 			"/>
		</g>
		<g>
			<polygon style="fill:#F0E910;" points="229.734,1.781 221.295,10.219 224.833,10.219 233.271,1.781 			"/>
		</g>
		<g>
			<polygon style="fill:#F0E910;" points="235.777,1.781 227.34,10.219 230.877,10.219 239.315,1.781 			"/>
		</g>
		<g>
			<polygon style="fill:#F0E910;" points="223.69,1.781 215.251,10.219 218.789,10.219 227.228,1.781 			"/>
		</g>
		<g>
			<polygon style="fill:#F0E910;" points="145.119,1.781 136.681,10.219 140.218,10.219 148.656,1.781 			"/>
		</g>
		<g>
			<polygon style="fill:#F0E910;" points="241.822,1.781 233.384,10.219 236.921,10.219 245.359,1.781 			"/>
		</g>
		<g>
			<polygon style="fill:#F0E910;" points="114.899,1.781 106.461,10.219 110,10.219 118.436,1.781 			"/>
		</g>
		<g>
			<polygon style="fill:#F0E910;" points="42.371,1.781 33.934,10.219 37.471,10.219 45.909,1.781 			"/>
		</g>
		<g>
			<polygon style="fill:#F0E910;" points="66.547,1.781 58.11,10.219 61.648,10.219 70.084,1.781 			"/>
		</g>
		<g>
			<polygon style="fill:#F0E910;" points="36.328,1.781 27.89,10.219 31.427,10.219 39.866,1.781 			"/>
		</g>
		<g>
			<polygon style="fill:#F0E910;" points="54.459,1.781 46.021,10.219 49.558,10.219 57.998,1.781 			"/>
		</g>
		<g>
			<polygon style="fill:#F0E910;" points="60.503,1.781 52.066,10.219 55.603,10.219 64.041,1.781 			"/>
		</g>
		<g>
			<polygon style="fill:#F0E910;" points="30.284,1.781 21.845,10.219 25.383,10.219 33.822,1.781 			"/>
		</g>
		<g>
			<polygon style="fill:#F0E910;" points="48.416,1.781 39.978,10.219 43.516,10.219 51.953,1.781 			"/>
		</g>
		<g>
			<polygon style="fill:#F0E910;" points="1.531,3.852 3.602,1.781 1.531,1.781 			"/>
		</g>
		<g>
			<polygon style="fill:#F0E910;" points="24.24,1.781 15.802,10.219 19.339,10.219 27.778,1.781 			"/>
		</g>
		<g>
			<polygon style="fill:#F0E910;" points="1.531,9.896 9.646,1.781 6.108,1.781 1.531,6.357 			"/>
		</g>
		<g>
			<polygon style="fill:#F0E910;" points="12.152,1.781 3.714,10.219 7.252,10.219 15.689,1.781 			"/>
		</g>
		<g>
			<polygon style="fill:#F0E910;" points="18.196,1.781 9.758,10.219 13.296,10.219 21.733,1.781 			"/>
		</g>
		<g>
			<polygon style="fill:#F0E910;" points="108.855,1.781 100.417,10.219 103.955,10.219 112.392,1.781 			"/>
		</g>
		<g>
			<polygon style="fill:#F0E910;" points="120.943,1.781 112.505,10.219 116.042,10.219 124.48,1.781 			"/>
		</g>
		<g>
			<polygon style="fill:#F0E910;" points="133.031,1.781 124.592,10.219 128.13,10.219 136.569,1.781 			"/>
		</g>
		<g>
			<polygon style="fill:#F0E910;" points="126.987,1.781 118.548,10.219 122.086,10.219 130.525,1.781 			"/>
		</g>
		<g>
			<polygon style="fill:#F0E910;" points="139.074,1.781 130.637,10.219 134.174,10.219 142.612,1.781 			"/>
		</g>
		<g>
			<polygon style="fill:#F0E910;" points="78.636,1.781 70.197,10.219 73.735,10.219 82.173,1.781 			"/>
		</g>
		<g>
			<polygon style="fill:#F0E910;" points="72.591,1.781 64.154,10.219 67.691,10.219 76.129,1.781 			"/>
		</g>
		<g>
			<polygon style="fill:#F0E910;" points="84.679,1.781 76.242,10.219 79.779,10.219 88.216,1.781 			"/>
		</g>
		<g>
			<polygon style="fill:#F0E910;" points="102.811,1.781 94.373,10.219 97.911,10.219 106.349,1.781 			"/>
		</g>
		<g>
			<polygon style="fill:#F0E910;" points="96.767,1.781 88.329,10.219 91.867,10.219 100.304,1.781 			"/>
		</g>
		<g>
			<polygon style="fill:#F0E910;" points="90.723,1.781 82.286,10.219 85.824,10.219 94.261,1.781 			"/>
		</g>
	</g>
</g>
</svg>
