<?xml version="1.0" encoding="utf-8"?>
<!-- Generator: Adobe Illustrator 16.0.0, SVG Export Plug-In . SVG Version: 6.00 Build 0)  -->
<!DOCTYPE svg PUBLIC "-//W3C//DTD SVG 1.1//EN" "http://www.w3.org/Graphics/SVG/1.1/DTD/svg11.dtd">
<svg version="1.1" id="Layer_1" xmlns="http://www.w3.org/2000/svg" xmlns:xlink="http://www.w3.org/1999/xlink" x="0px" y="0px"
	 width="32px" height="32px" viewBox="0 0 32 32" style="enable-background:new 0 0 32 32;" xml:space="preserve">
<path style="fill:#F0E910;" d="M23.681,12.159c0,3.841-3.84,7.622-3.84,11.522h-7.682c0-3.78-3.84-7.682-3.84-11.522
	c0-4.241,3.439-7.681,7.68-7.681C20.243,4.478,23.681,7.917,23.681,12.159z M18.88,27.522h-5.76c-0.531,0-0.961,0.43-0.961,0.96
	s0.43,0.96,0.961,0.96h0.176c0.396,1.118,1.451,1.921,2.705,1.921c1.252,0,2.309-0.803,2.703-1.921h0.176
	c0.531,0,0.961-0.43,0.961-0.96S19.411,27.522,18.88,27.522z M18.88,24.641h-5.76c-0.531,0-0.961,0.43-0.961,0.961
	c0,0.53,0.43,0.96,0.961,0.96h5.76c0.531,0,0.961-0.43,0.961-0.96C19.841,25.071,19.411,24.641,18.88,24.641z M5.542,7.231
	l1.723,0.994c0.268-0.589,0.592-1.141,0.967-1.66L6.503,5.566L5.542,7.231z M16.96,2.655V0.637h-1.92v2.018
	c0.322-0.034,0.631-0.097,0.959-0.097C16.331,2.558,16.64,2.621,16.96,2.655z M12.065,3.423L11.073,1.7L9.407,2.661l0.998,1.729
	C10.925,4.015,11.478,3.69,12.065,3.423z M26.46,7.231l-0.961-1.665l-1.73,0.999c0.377,0.52,0.703,1.071,0.969,1.66L26.46,7.231z
	 M22.593,2.661L20.933,1.7l-0.996,1.724c0.588,0.267,1.139,0.592,1.658,0.965L22.593,2.661z M6.397,12.159
	c0-0.329,0.064-0.639,0.1-0.959h-2.02v1.92h2.023C6.462,12.801,6.397,12.486,6.397,12.159z M25.505,11.2
	c0.033,0.32,0.098,0.63,0.098,0.959c0,0.327-0.064,0.643-0.102,0.961h2.021V11.2H25.505z M23.927,17.843l1.572,0.908l0.961-1.664
	l-1.744-1.005C24.474,16.679,24.21,17.263,23.927,17.843z M5.542,17.087l0.961,1.664l1.559-0.898
	c-0.283-0.582-0.545-1.17-0.783-1.768L5.542,17.087z"/>
</svg>
