<?xml version="1.0" encoding="utf-8"?>
<!-- Generator: Adobe Illustrator 16.0.0, SVG Export Plug-In . SVG Version: 6.00 Build 0)  -->
<!DOCTYPE svg PUBLIC "-//W3C//DTD SVG 1.1//EN" "http://www.w3.org/Graphics/SVG/1.1/DTD/svg11.dtd">
<svg version="1.1" id="Layer_1" xmlns="http://www.w3.org/2000/svg" xmlns:xlink="http://www.w3.org/1999/xlink" x="0px" y="0px"
	 width="32px" height="32px" viewBox="0 0 32 32" style="enable-background:new 0 0 32 32;" xml:space="preserve">
<path style="fill:#E9215C;" d="M17.497,20.064c0.021-0.085,0.028-0.169,0.028-0.257V4.565c0-0.844-0.679-1.525-1.526-1.525
	c-0.844,0-1.525,0.692-1.525,1.525v15.242c0,0.088,0.007,0.172,0.027,0.257c-1.79,0.62-3.075,2.318-3.075,4.321
	c0,2.527,2.047,4.574,4.576,4.574c2.529,0,4.576-2.047,4.576-4.574C20.573,22.383,19.287,20.685,17.497,20.064z"/>
<rect x="12.986" y="6.062" style="fill:#E9215C;" width="6.03" height="1.375"/>
<rect x="12.986" y="11.269" style="fill:#E9215C;" width="6.03" height="1.375"/>
<rect x="12.986" y="16.476" style="fill:#E9215C;" width="6.03" height="1.374"/>
</svg>
